<?xml version="1.0" encoding="UTF-8" standalone="no"?>
<!DOCTYPE svg PUBLIC "-//W3C//DTD SVG 1.1//EN" "http://www.w3.org/Graphics/SVG/1.1/DTD/svg11.dtd">
<svg width="100%" height="100%" viewBox="0 0 2400 1700" version="1.1" xmlns="http://www.w3.org/2000/svg" xmlns:xlink="http://www.w3.org/1999/xlink" xml:space="preserve" xmlns:serif="http://www.serif.com/" style="fill-rule:evenodd;clip-rule:evenodd;stroke-linejoin:round;stroke-miterlimit:2;">
    <g>
        <rect x="0" y="0" width="2400" height="1700" style="fill:white;fill-rule:nonzero;"/>
        <path d="M1159.9,297.692C1159.9,297.692 1284.87,483.985 1291.26,520.383C1297.66,556.781 1301.3,723.232 1301.3,723.232C1394.59,671.149 1479.1,648.311 1479.1,648.311C1479.1,648.311 1485.68,542.163 1469.08,454.914C1443.81,322.015 1372.55,158.187 1223.45,201.152C1196.68,208.867 1197.61,220.177 1197.61,220.177L1171.61,240.696L1159.9,297.692Z" style="fill:rgb(202,194,194);fill-rule:nonzero;"/>
        <path d="M1257.32,297.692C1257.32,297.692 1100.89,451.476 1094.49,487.874C1088.1,524.273 1115.73,641.195 1112.95,723.232C1041.38,687.365 933.616,654.091 933.616,654.091C933.616,654.091 924.515,602.169 958.904,454.914C983.208,350.846 1027.71,103.272 1297.55,207.61C1323.54,217.658 1257.32,297.692 1257.32,297.692Z" style="fill:rgb(202,194,194);fill-rule:nonzero;"/>
        <path d="M1329.09,817.999C1321.33,734.811 1315.1,633.343 1315.1,633.343L1100.17,633.343C1100.17,633.343 1095.61,739.315 1091.7,822.478C1090.56,846.751 1076.63,868.596 1055.09,879.853L1011.64,902.572L1182.01,1098.96L1419.52,905.325L1362.81,871.477C1343.67,860.056 1331.15,840.187 1329.09,817.999Z" style="fill:rgb(178,138,115);fill-rule:nonzero;"/>
        <path d="M1786.44,1231.34C1715.92,1030.76 1671.44,1011.37 1592.04,973.564C1554.8,955.835 1437.96,903.701 1373.9,872.069C1331.57,911.306 1278.28,932.552 1213.92,932.552C1148.03,932.552 1096.51,916.133 1053.96,875.237C999.167,902.488 892.523,942.335 826.959,973.564C773.602,998.979 701.262,1025.9 615.672,1220.79C565.867,1334.2 521.556,1554 456.53,1700L1943.47,1700C1918.02,1570.13 1844.43,1396.3 1786.44,1231.34Z" style="fill:rgb(16,22,30);fill-rule:nonzero;"/>
        <path d="M1583.98,1591.56C1569.09,1460.89 1582.73,1338.52 1596.79,1258.87C1613.62,1163.6 1662.82,1104.42 1677.5,1088.55C1677.87,1088.14 1678.11,1087.89 1678.2,1087.78L1679.19,1088.58L1680.81,1089.19C1680.69,1089.51 1680.64,1089.57 1679.7,1090.59C1665.16,1106.3 1616.43,1164.92 1599.75,1259.39C1585.72,1338.84 1572.11,1460.91 1586.96,1591.22L1583.98,1591.56Z" style="fill:rgb(3,4,5);fill-rule:nonzero;"/>
        <path d="M788.998,1591.46L786.001,1591.33C799.034,1289.05 750.275,1180.35 729.455,1133.93C726.065,1126.37 723.388,1120.4 721.97,1115.67L724.844,1114.81C726.206,1119.35 728.847,1125.24 732.192,1132.7C753.1,1179.31 802.062,1288.47 788.998,1591.46Z" style="fill:rgb(3,4,5);fill-rule:nonzero;"/>
        <path d="M1094.8,709.004C1094.8,709.004 1138.87,828.205 1205.97,831.076C1273.07,833.947 1319.06,719.413 1319.06,719.413L1207.97,712.429L1094.8,709.004Z" style="fill:rgb(153,113,91);fill-rule:nonzero;"/>
        <path d="M1374.36,485.376C1374.36,485.376 1397.09,470.663 1414.7,494.126C1432.33,517.582 1420.58,605.592 1376.58,605.592C1332.57,605.592 1374.36,485.376 1374.36,485.376Z" style="fill:rgb(153,113,91);fill-rule:nonzero;"/>
        <path d="M1409.04,508.531C1404.68,505.921 1399.07,506.648 1395.47,510.252C1393.65,512.075 1392.54,514.479 1392.23,517.029C1391.82,520.44 1393.15,523.509 1394.03,526.735C1395.84,533.373 1396.59,540.234 1396.05,547.1C1395.66,552.134 1394.53,557.034 1393.43,561.948C1392.47,566.252 1391.5,570.733 1392.42,575.131C1392.71,576.518 1394.83,575.931 1394.54,574.545C1393.82,571.077 1394.49,567.484 1395.22,564.075C1396.16,559.665 1397.26,555.296 1397.86,550.82C1398.64,545.029 1398.6,539.203 1397.71,533.425C1397.16,529.821 1396.28,526.277 1395.16,522.808C1394.31,520.157 1393.96,517.413 1395.05,514.768C1397.13,509.73 1403.27,507.647 1407.93,510.434C1409.15,511.163 1410.26,509.258 1409.04,508.531Z" style="fill:rgb(112,77,62);fill-rule:nonzero;"/>
        <path d="M1048.77,485.376C1048.77,485.376 1026.04,470.663 1008.43,494.126C990.804,517.582 1002.55,605.592 1046.55,605.592C1090.56,605.592 1048.77,485.376 1048.77,485.376Z" style="fill:rgb(153,113,91);fill-rule:nonzero;"/>
        <path d="M1015.2,510.434C1019.26,508.005 1024.59,509.201 1027.22,513.172C1028.63,515.309 1029.07,517.928 1028.61,520.437C1028.3,522.159 1027.63,523.81 1027.16,525.492C1026.66,527.245 1022.39,536.816 1023.03,542.837C1023.52,547.471 1026.56,557.996 1027.57,562.534C1028.45,566.422 1029.42,570.563 1028.59,574.545C1028.3,575.929 1030.42,576.521 1030.71,575.131C1031.51,571.292 1030.87,567.388 1030.06,563.606C1029.05,558.851 1025.84,548.143 1025.29,543.302C1024.54,536.757 1029.34,525.785 1029.95,523.847C1030.45,522.272 1030.89,520.727 1030.97,519.066C1031.1,516.482 1030.4,513.829 1028.89,511.719C1025.51,507.015 1019.09,505.541 1014.09,508.531C1012.87,509.257 1013.98,511.164 1015.2,510.434Z" style="fill:rgb(112,77,62);fill-rule:nonzero;"/>
        <path d="M1379.6,448.805C1379.6,355.587 1305.66,306.08 1212.77,306.08C1212.18,306.08 1211.59,306.089 1211,306.095C1210.42,306.089 1209.83,306.08 1209.24,306.08C1116.35,306.08 1042.41,355.587 1042.41,448.805C1042.41,448.805 1040.18,593.081 1040.98,598.78C1046.77,639.635 1061.85,675.588 1087.45,709.004C1124.35,757.169 1171.02,802.662 1210.63,802.662L1211.38,802.662C1250.99,802.662 1297.66,757.169 1334.56,709.004C1360.16,675.588 1375.24,639.635 1381.02,598.78C1381.83,593.081 1379.6,448.805 1379.6,448.805Z" style="fill:rgb(178,138,115);fill-rule:nonzero;"/>
        <path d="M1251.04,458.867C1251.04,458.867 1324.41,451.551 1338.56,452.92C1362.13,455.205 1367.2,467.542 1370.82,475.854C1372.07,478.707 1275.04,488.197 1260.94,483.101C1246.84,478.004 1251.04,458.867 1251.04,458.867Z" style="fill:rgb(16,22,30);fill-rule:nonzero;"/>
        <path d="M1170.5,458.867C1170.5,458.867 1097.15,451.551 1082.99,452.92C1059.42,455.205 1054.35,467.542 1050.72,475.854C1049.47,478.707 1146.5,488.197 1160.6,483.101C1174.7,478.004 1170.5,458.867 1170.5,458.867Z" style="fill:rgb(16,22,30);fill-rule:nonzero;"/>
        <path d="M1212.89,652.507C1205.77,652.507 1199.48,647.423 1197.59,640.144L1200.44,639.406C1201.99,645.39 1207.11,649.569 1212.89,649.569C1218.99,649.569 1224.32,644.905 1225.55,638.48L1228.43,639.033C1226.94,646.84 1220.4,652.507 1212.89,652.507Z" style="fill:white;fill-rule:nonzero;"/>
        <path d="M1232.47,632.331C1238.77,631.371 1246.87,639.667 1246.87,639.667L1221.06,643.289C1224.57,636.794 1226.18,633.295 1232.47,632.331Z" style="fill:rgb(112,77,62);fill-rule:nonzero;"/>
        <path d="M1192.94,632.331C1186.65,631.371 1178.55,639.667 1178.55,639.667L1204.35,643.289C1200.84,636.794 1199.24,633.295 1192.94,632.331Z" style="fill:rgb(112,77,62);fill-rule:nonzero;"/>
        <path d="M1313.04,614.715C1298.6,614.715 1292.99,603.988 1299.73,596.422C1305.25,590.226 1322.03,575.073 1341.21,575.073C1345.76,575.073 1350.45,575.926 1355.15,577.957C1359.69,579.914 1370.08,589.216 1363.39,597.855C1356.69,606.494 1333.23,614.321 1313.62,614.709C1313.43,614.713 1313.23,614.715 1313.04,614.715Z" style="fill:rgb(186,151,131);fill-rule:nonzero;"/>
        <path d="M1112.69,614.296C1112.5,614.296 1112.3,614.294 1112.1,614.29C1092.49,613.902 1069.03,606.075 1062.34,597.437C1055.65,588.797 1066.04,579.494 1070.58,577.538C1075.28,575.508 1079.97,574.655 1084.52,574.655C1103.7,574.655 1120.48,589.807 1125.99,596.004C1132.73,603.57 1127.13,614.297 1112.69,614.296Z" style="fill:rgb(186,151,131);fill-rule:nonzero;"/>
        <path d="M1175.99,582.556C1175.99,583.324 1175.36,583.947 1174.6,583.947C1173.83,583.947 1173.21,583.324 1173.21,582.556C1173.21,581.788 1173.83,581.165 1174.6,581.165C1175.36,581.165 1175.99,581.788 1175.99,582.556Z" style="fill:rgb(96,63,52);fill-rule:nonzero;"/>
        <path d="M1196.39,576.229C1196.39,576.998 1195.77,577.62 1195,577.62C1194.23,577.62 1193.61,576.998 1193.61,576.229C1193.61,575.46 1194.23,574.838 1195,574.838C1195.77,574.838 1196.39,575.46 1196.39,576.229Z" style="fill:rgb(96,63,52);fill-rule:nonzero;"/>
        <path d="M1218.21,578.338C1218.21,579.503 1217.26,580.447 1216.1,580.447C1214.93,580.447 1213.99,579.503 1213.99,578.338C1213.99,577.173 1214.93,576.229 1216.1,576.229C1217.26,576.229 1218.21,577.173 1218.21,578.338Z" style="fill:rgb(96,63,52);fill-rule:nonzero;"/>
        <path d="M1209.24,583.947C1209.24,585.112 1208.29,586.056 1207.13,586.056C1205.96,586.056 1205.02,585.112 1205.02,583.947C1205.02,582.782 1205.96,581.838 1207.13,581.838C1208.29,581.838 1209.24,582.782 1209.24,583.947Z" style="fill:rgb(96,63,52);fill-rule:nonzero;"/>
        <path d="M1247.24,574.12C1247.24,575.285 1246.29,576.229 1245.13,576.229C1243.96,576.229 1243.02,575.285 1243.02,574.12C1243.02,572.956 1243.96,572.011 1245.13,572.011C1246.29,572.011 1247.24,572.956 1247.24,574.12Z" style="fill:rgb(96,63,52);fill-rule:nonzero;"/>
        <path d="M1219.74,596.431C1219.74,597.28 1219.06,597.969 1218.21,597.969C1217.36,597.969 1216.67,597.28 1216.67,596.431C1216.67,595.582 1217.36,594.894 1218.21,594.894C1219.06,594.894 1219.74,595.582 1219.74,596.431Z" style="fill:rgb(96,63,52);fill-rule:nonzero;"/>
        <path d="M1179.06,573.549C1179.06,574.398 1178.37,575.086 1177.52,575.086C1176.68,575.086 1175.99,574.398 1175.99,573.549C1175.99,572.7 1176.68,572.011 1177.52,572.011C1178.37,572.011 1179.06,572.7 1179.06,573.549Z" style="fill:rgb(96,63,52);fill-rule:nonzero;"/>
        <path d="M1269.14,592.366C1269.14,593.531 1268.19,594.475 1267.03,594.475C1265.87,594.475 1264.92,593.531 1264.92,592.366C1264.92,591.202 1265.87,590.257 1267.03,590.257C1268.19,590.257 1269.14,591.202 1269.14,592.366Z" style="fill:rgb(96,63,52);fill-rule:nonzero;"/>
        <path d="M1162.65,590.257C1162.65,591.422 1161.7,592.366 1160.54,592.366C1159.37,592.366 1158.43,591.422 1158.43,590.257C1158.43,589.093 1159.37,588.148 1160.54,588.148C1161.7,588.148 1162.65,589.093 1162.65,590.257Z" style="fill:rgb(96,63,52);fill-rule:nonzero;"/>
        <path d="M1232.13,588.148C1232.13,588.844 1231.56,589.408 1230.87,589.408C1230.17,589.408 1229.61,588.844 1229.61,588.148C1229.61,587.453 1230.17,586.888 1230.87,586.888C1231.56,586.888 1232.13,587.453 1232.13,588.148Z" style="fill:rgb(96,63,52);fill-rule:nonzero;"/>
        <path d="M1253.63,578.88C1253.63,579.576 1253.07,580.141 1252.37,580.141C1251.68,580.141 1251.11,579.576 1251.11,578.88C1251.11,578.185 1251.68,577.62 1252.37,577.62C1253.07,577.62 1253.63,578.185 1253.63,578.88Z" style="fill:rgb(96,63,52);fill-rule:nonzero;"/>
        <path d="M1126.54,548.463C1124.65,548.463 1122.68,548.349 1120.64,548.102C1096.52,545.175 1080.73,520.941 1080.73,520.941C1086.36,517.115 1091.69,516.063 1096.98,516.063C1100.22,516.063 1103.44,516.456 1106.7,516.849C1109.97,517.242 1113.29,517.635 1116.71,517.635C1119.72,517.635 1122.81,517.332 1126.03,516.462C1126.29,516.451 1126.55,516.445 1126.81,516.445C1142.36,516.445 1159.08,535.181 1159.08,535.181C1159.08,535.181 1147.08,548.463 1126.54,548.463Z" style="fill:rgb(231,219,212);fill-rule:nonzero;"/>
        <path d="M1161.88,543.142C1161.18,543.142 1160.48,542.803 1160.06,542.175C1150.43,527.984 1142.36,522.479 1125.53,518.61C1108.68,514.735 1090.42,517.461 1075.44,526.092C1074.38,526.698 1073.04,526.336 1072.43,525.282C1071.82,524.227 1072.18,522.879 1073.24,522.271C1089.18,513.093 1108.6,510.193 1126.52,514.314C1144.42,518.429 1153.45,524.597 1163.71,539.7C1164.39,540.707 1164.13,542.078 1163.12,542.761C1162.74,543.019 1162.31,543.142 1161.88,543.142Z" style="fill:rgb(16,22,30);fill-rule:nonzero;"/>
        <path d="M1098.63,515.925C1096.73,527.038 1102.07,539.502 1112.12,544.61C1122.17,549.719 1135.24,546.627 1143.18,538.627C1146.62,535.161 1149.33,530.471 1148.78,525.618C1148.78,525.618 1141.31,520.759 1132.13,517.393C1118.03,512.218 1100.16,511.774 1098.63,515.925Z" style="fill:rgb(16,22,30);fill-rule:nonzero;"/>
        <path d="M1110.17,522.507C1107.78,522.507 1105.83,524.453 1105.83,526.845C1105.83,529.237 1107.78,531.184 1110.17,531.184C1112.56,531.184 1114.51,529.237 1114.51,526.845C1114.51,524.453 1112.56,522.507 1110.17,522.507ZM1110.17,532.497C1107.05,532.497 1104.52,529.961 1104.52,526.845C1104.52,523.729 1107.05,521.194 1110.17,521.194C1113.28,521.194 1115.82,523.729 1115.82,526.845C1115.82,529.961 1113.28,532.497 1110.17,532.497Z" style="fill:rgb(218,209,209);fill-rule:nonzero;"/>
        <path d="M1157.87,515.062C1146.58,505.619 1132.86,499.2 1118.36,496.656C1114.27,495.939 1110.14,495.525 1106,495.415C1104.58,495.377 1104.58,497.581 1106,497.619C1120.19,497.997 1134.19,502.137 1146.34,509.492C1149.84,511.612 1153.17,513.994 1156.32,516.621C1157.4,517.524 1158.96,515.974 1157.87,515.062Z" style="fill:rgb(112,77,62);fill-rule:nonzero;"/>
        <path d="M1301.32,548.757C1280.43,548.759 1268.2,535.25 1268.2,535.25C1268.2,535.25 1284.23,516.101 1299.82,516.101C1300.5,516.101 1301.17,516.137 1301.85,516.212C1305.12,517.097 1308.26,517.405 1311.32,517.405C1314.8,517.405 1318.17,517.006 1321.49,516.606C1324.82,516.206 1328.09,515.807 1331.38,515.807C1336.76,515.807 1342.18,516.876 1347.91,520.768C1347.91,520.768 1331.85,545.413 1307.32,548.39C1305.25,548.642 1303.25,548.757 1301.32,548.757Z" style="fill:rgb(231,219,212);fill-rule:nonzero;"/>
        <path d="M1265.38,543.308C1264.95,543.308 1264.52,543.185 1264.14,542.928C1263.13,542.244 1262.87,540.874 1263.56,539.866C1273.97,524.517 1283.16,518.247 1301.35,514.064C1319.57,509.875 1339.31,512.824 1355.51,522.153C1356.57,522.761 1356.93,524.108 1356.32,525.163C1355.71,526.218 1354.37,526.58 1353.31,525.973C1338.07,517.193 1319.49,514.418 1302.34,518.36C1285.21,522.297 1277,527.9 1267.2,542.342C1266.78,542.97 1266.08,543.308 1265.38,543.308Z" style="fill:rgb(16,22,30);fill-rule:nonzero;"/>
        <path d="M1329.71,515.691C1331.64,526.993 1326.21,539.669 1315.99,544.864C1305.76,550.06 1292.48,546.915 1284.4,538.779C1280.9,535.254 1278.14,530.484 1278.71,525.549C1278.71,525.549 1288.3,519.722 1299.18,515.941C1312.85,511.188 1327.59,511.401 1329.71,515.691Z" style="fill:rgb(16,22,30);fill-rule:nonzero;"/>
        <path d="M1292.2,523.696C1289.77,523.696 1287.79,525.675 1287.79,528.108C1287.79,530.541 1289.77,532.52 1292.2,532.52C1294.63,532.52 1296.61,530.541 1296.61,528.108C1296.61,525.675 1294.63,523.696 1292.2,523.696ZM1292.2,533.855C1289.03,533.855 1286.45,531.277 1286.45,528.108C1286.45,524.939 1289.03,522.36 1292.2,522.36C1295.37,522.36 1297.95,524.939 1297.95,528.108C1297.95,531.277 1295.37,533.855 1292.2,533.855Z" style="fill:rgb(218,209,209);fill-rule:nonzero;"/>
        <path d="M1267.2,520.057C1277.94,509.025 1293,503.527 1308.04,501.701C1312.26,501.188 1316.51,500.954 1320.76,500.947C1322.18,500.944 1322.18,498.74 1320.76,498.743C1305.26,498.77 1289.15,501.813 1275.9,510.2C1272.17,512.558 1268.72,515.338 1265.64,518.499C1264.65,519.515 1266.21,521.076 1267.2,520.057Z" style="fill:rgb(112,77,62);fill-rule:nonzero;"/>
        <path d="M1254.61,642.706C1260.8,639.253 1262.28,630.106 1257.66,624.799C1256.73,623.727 1255.18,625.291 1256.1,626.357C1259.81,630.623 1258.39,638.077 1253.5,640.802C1252.26,641.493 1253.37,643.397 1254.61,642.706Z" style="fill:rgb(112,77,62);fill-rule:nonzero;"/>
        <path d="M1170.46,641.041C1167.55,637.059 1167.61,631.2 1170.84,627.4C1171.75,626.326 1170.2,624.759 1169.28,625.842C1165.45,630.348 1165.03,637.333 1168.56,642.153C1168.91,642.637 1169.51,642.864 1170.06,642.548C1170.54,642.276 1170.81,641.52 1170.46,641.041Z" style="fill:rgb(112,77,62);fill-rule:nonzero;"/>
        <path d="M1172.31,492.027C1177.5,516.958 1182.56,542.205 1182.48,567.78C1182.46,574.802 1182.02,581.819 1181.09,588.781C1180.9,590.182 1183.11,590.168 1183.29,588.781C1186.7,563.416 1183.36,537.695 1178.69,512.713C1177.36,505.605 1175.91,498.521 1174.43,491.441C1174.14,490.053 1172.02,490.641 1172.31,492.027Z" style="fill:rgb(112,77,62);fill-rule:nonzero;"/>
        <path d="M1192.49,671.156C1189.45,670.722 1159.88,689.288 1158.37,694.188C1162.65,707.836 1174.75,718.947 1186.51,722.379C1196.03,725.158 1207.41,730.608 1219.35,729.399C1250.47,726.246 1264.92,709.004 1269.73,694.738C1272.14,687.577 1237.97,670.963 1235.6,671.27C1222.97,672.902 1206.93,673.213 1192.49,671.156Z" style="fill:rgb(153,113,91);fill-rule:nonzero;"/>
        <path d="M1230.6,714.121C1223.66,714.121 1220.96,709.303 1223.95,706.303C1227.24,703.019 1233.5,701.551 1237.32,701.551C1237.69,701.551 1238.03,701.564 1238.34,701.59C1248.47,702.436 1245.53,710.881 1235.25,713.496C1233.54,713.93 1231.99,714.121 1230.6,714.121Z" style="fill:rgb(163,128,109);fill-rule:nonzero;"/>
        <path d="M1139.9,688.646C1148.08,694.142 1158.2,696.646 1168.01,695.614C1173.33,695.054 1178.12,693.127 1183.19,691.589C1185.79,690.803 1188.42,690.289 1191.15,690.417C1193.86,690.546 1196.5,691.202 1199.11,691.91C1204.2,693.293 1209.22,694.791 1214.56,694.279C1219.87,693.771 1224.91,691.943 1230.12,690.941C1232.89,690.409 1235.69,690.192 1238.5,690.489C1241.4,690.794 1244.23,691.562 1247.04,692.3C1251.67,693.516 1256.34,694.529 1261.1,695.063C1271.29,696.205 1282.1,695.003 1290.22,688.231C1291.31,687.322 1289.75,685.771 1288.67,686.673C1281.54,692.612 1272,693.789 1263.04,693.048C1258.43,692.667 1253.86,691.777 1249.38,690.631C1244.09,689.279 1238.82,687.739 1233.29,688.266C1228.13,688.759 1223.22,690.5 1218.16,691.518C1215.54,692.045 1212.88,692.337 1210.21,692.129C1207.57,691.923 1204.98,691.241 1202.43,690.541C1197.61,689.218 1192.72,687.73 1187.67,688.35C1182.42,688.994 1177.65,691.459 1172.54,692.644C1161.77,695.134 1150.16,692.89 1141.02,686.743C1139.83,685.95 1138.73,687.858 1139.9,688.646Z" style="fill:rgb(112,77,62);fill-rule:nonzero;"/>
        <path d="M1176.09,718.018C1192.78,730.798 1215.25,734.488 1235.13,727.642C1240.78,725.697 1246.14,722.974 1251.03,719.541C1252.18,718.732 1251.08,716.82 1249.92,717.638C1233.09,729.455 1211.19,732.12 1192.05,724.563C1186.73,722.463 1181.74,719.589 1177.2,716.115C1176.07,715.253 1174.98,717.167 1176.09,718.018Z" style="fill:rgb(112,77,62);fill-rule:nonzero;"/>
        <path d="M1031.69,629.28C1030.08,629.28 1028.78,627.98 1028.78,626.376L1028.78,592.313C1028.78,590.709 1030.08,589.409 1031.69,589.409C1033.29,589.409 1034.59,590.709 1034.59,592.313L1034.59,626.376C1034.59,627.98 1033.29,629.28 1031.69,629.28Z" style="fill:rgb(16,22,30);fill-rule:nonzero;"/>
        <path d="M1254.05,315.292C1254.05,315.292 1377.69,433.54 1380.1,482.706C1406.16,452.749 1401.45,351.761 1390.62,346.269C1379.8,340.778 1245.61,240.696 1245.61,240.696L1133.63,248.796L978.921,367.864C978.921,367.864 1007.48,472.991 1040.81,480.821C1068.37,379.255 1254.05,315.292 1254.05,315.292Z" style="fill:rgb(202,194,194);fill-rule:nonzero;"/>
        <path d="M1212.74,315.455C1312.48,303.434 1414.72,286.356 1414.72,286.356C1414.72,286.356 1370.58,209.128 1302.03,176.262C1244.89,148.863 1217.7,150.689 1210.21,150.689C1202.72,150.689 1175.53,148.863 1118.38,176.262C1049.83,209.128 1005.7,286.356 1005.7,286.356C1005.7,286.356 1107.93,303.434 1207.67,315.455L1207.67,316.062C1208.52,315.961 1209.36,315.859 1210.21,315.758C1211.05,315.859 1211.9,315.961 1212.74,316.062L1212.74,315.455Z" style="fill:rgb(1,0,16);fill-rule:nonzero;"/>
        <path d="M1403.5,276.005C1403.5,276.005 1225.4,238.127 1088.38,257.555C1049.86,263.017 1004.11,267.78 996.949,278.005C989.792,288.231 975.679,375.483 975.679,375.483C975.679,375.483 1101.67,338.672 1210.06,341.74C1318.45,344.808 1455.92,391.652 1455.92,391.652C1455.92,391.652 1431.61,293.635 1426.96,288.847C1416.36,277.957 1403.5,276.005 1403.5,276.005Z" style="fill-rule:nonzero;"/>
        <path d="M1024.64,272.264C1038.21,269.833 1051.78,267.44 1065.39,265.273C1081.52,262.706 1097.69,260.441 1113.92,258.62C1132,256.59 1150.15,255.101 1168.33,254.305C1187.82,253.452 1207.36,253.394 1226.85,254.34C1247.04,255.32 1267.18,257.371 1287.1,260.775C1289.63,261.208 1292.16,261.663 1294.68,262.137C1296.57,262.492 1297.38,259.601 1295.48,259.244C1275.46,255.479 1255.19,253.065 1234.86,251.786C1215.17,250.548 1195.43,250.365 1175.72,251.02C1157.19,251.636 1138.68,252.995 1120.24,254.933C1103.61,256.681 1087.02,258.902 1070.49,261.456C1056.44,263.626 1042.43,266.05 1028.43,268.55C1026.9,268.823 1025.37,269.097 1023.84,269.372C1021.94,269.711 1022.75,272.603 1024.64,272.264Z" style="fill:rgb(174,174,181);fill-rule:nonzero;"/>
        <path d="M1044.76,276.049C1043.4,293.759 1040.51,311.313 1039.44,329.056C1039.12,334.439 1038.93,339.833 1039.01,345.227C1039.04,347.155 1042.04,347.161 1042.01,345.227C1041.74,326.354 1044.36,307.566 1046.48,288.856C1046.97,284.594 1047.44,280.327 1047.76,276.049C1047.91,274.124 1044.91,274.133 1044.76,276.049Z" style="fill:rgb(179,179,199);fill-rule:nonzero;"/>
        <path d="M1061.08,276.076C1059.46,293.755 1058.5,311.403 1059.2,329.156C1059.42,334.729 1059.75,340.297 1060.12,345.862C1060.25,347.778 1063.26,347.792 1063.12,345.862C1061.92,328.144 1061.54,310.486 1062.73,292.756C1063.1,287.19 1063.57,281.631 1064.08,276.076C1064.25,274.154 1061.25,274.166 1061.08,276.076Z" style="fill:rgb(179,179,181);fill-rule:nonzero;"/>
        <path d="M1384.13,297.002C1389.08,313.369 1393.98,329.749 1398.22,346.317C1399.45,351.149 1400.65,355.992 1401.82,360.84C1402.27,362.716 1405.17,361.922 1404.71,360.042C1400.85,344.056 1396.58,328.194 1391.9,312.427C1390.29,307.014 1388.66,301.609 1387.02,296.205C1386.47,294.362 1383.57,295.147 1384.13,297.002Z" style="fill:rgb(182,182,182);fill-rule:nonzero;"/>
        <path d="M1347.84,288.999C1350.34,298.152 1352.68,307.355 1354.49,316.673C1356.01,324.519 1357.1,332.433 1358.03,340.369C1358.68,345.886 1359.27,351.41 1359.88,356.932C1360.09,358.831 1363.09,358.852 1362.88,356.932C1360.98,339.596 1359.09,322.317 1355.11,305.308C1353.77,299.576 1352.28,293.88 1350.73,288.202C1350.22,286.341 1347.33,287.131 1347.84,288.999Z" style="fill:rgb(180,180,180);fill-rule:nonzero;"/>
        <path d="M1328.26,286.775C1331.08,294.542 1332.49,302.843 1333.76,310.981C1335.09,319.487 1336.07,328.042 1337.02,336.597C1337.4,340.008 1337.76,343.421 1338.22,346.823C1338.33,347.632 1339.36,348.057 1340.06,347.871C1340.93,347.642 1341.22,346.825 1341.11,346.026C1339.01,330.463 1337.84,314.195 1334.57,298.583C1333.67,294.325 1332.64,290.072 1331.15,285.978C1330.5,284.178 1327.6,284.955 1328.26,286.775Z" style="fill:rgb(188,188,188);fill-rule:nonzero;"/>
        <path d="M1383.97,288.348C1347.21,280.692 1324.02,277.924 1323.79,277.897L1325.54,263C1326.5,263.113 1349.55,265.858 1387.03,273.663L1383.97,288.348Z" style="fill:rgb(173,173,173);fill-rule:nonzero;"/>
    </g>
</svg>
